<svg xmlns="http://www.w3.org/2000/svg" width="1200" height="520" viewBox="0 0 1200 520" role="img" aria-labelledby="title desc">
  <title id="title">San Francisco crime incidents by year</title>
  <desc id="desc">Annual incident counts from 2003 to 2024, with 2018 highlighted as a spike and 2020 highlighted as a drop.</desc>
  <rect width="1200" height="520" fill="#101b31"/>

  <text x="82" y="40" fill="#e8eef8" font-size="28" font-family="Segoe UI, Arial, sans-serif" font-weight="700">
    Incidents trend up and down, but the baseline falls after the late 2010s
  </text>
  <text x="82" y="66" fill="#9fb2cc" font-size="15" font-family="Segoe UI, Arial, sans-serif">
    San Francisco incident counts per year, 2003-2024. Partial years 2025-2026 are excluded.
  </text>

  <line x1="82" y1="436" x2="1158" y2="436" stroke="#24375b" stroke-width="1"/>
  <line x1="82" y1="342.2" x2="1158" y2="342.2" stroke="#24375b" stroke-width="1"/>
  <line x1="82" y1="248.3" x2="1158" y2="248.3" stroke="#24375b" stroke-width="1"/>
  <line x1="82" y1="154.5" x2="1158" y2="154.5" stroke="#24375b" stroke-width="1"/>
  <line x1="82" y1="98.2" x2="1158" y2="98.2" stroke="#24375b" stroke-width="1"/>

  <text x="24" y="441" fill="#8fa6c4" font-size="13" font-family="Segoe UI, Arial, sans-serif">0</text>
  <text x="12" y="347.2" fill="#8fa6c4" font-size="13" font-family="Segoe UI, Arial, sans-serif">50k</text>
  <text x="6" y="253.3" fill="#8fa6c4" font-size="13" font-family="Segoe UI, Arial, sans-serif">100k</text>
  <text x="6" y="159.5" fill="#8fa6c4" font-size="13" font-family="Segoe UI, Arial, sans-serif">150k</text>
  <text x="6" y="103.2" fill="#8fa6c4" font-size="13" font-family="Segoe UI, Arial, sans-serif">180k</text>

  <rect x="82" y="173" width="41" height="263" rx="3" fill="#4d648d"/>
  <rect x="131" y="175" width="41" height="261" rx="3" fill="#4d648d"/>
  <rect x="180" y="185" width="41" height="251" rx="3" fill="#4d648d"/>
  <rect x="229" y="195" width="41" height="241" rx="3" fill="#4d648d"/>
  <rect x="278" y="195" width="41" height="241" rx="3" fill="#4d648d"/>
  <rect x="327" y="189" width="41" height="247" rx="3" fill="#4d648d"/>
  <rect x="376" y="191" width="41" height="245" rx="3" fill="#4d648d"/>
  <rect x="425" y="204" width="41" height="232" rx="3" fill="#4d648d"/>
  <rect x="474" y="205" width="41" height="231" rx="3" fill="#4d648d"/>
  <rect x="523" y="189" width="41" height="247" rx="3" fill="#4d648d"/>
  <rect x="572" y="167" width="41" height="269" rx="3" fill="#4d648d"/>
  <rect x="621" y="173" width="41" height="263" rx="3" fill="#4d648d"/>
  <rect x="670" y="161" width="41" height="275" rx="3" fill="#4d648d"/>
  <rect x="719" y="171" width="41" height="265" rx="3" fill="#4d648d"/>
  <rect x="768" y="164" width="41" height="272" rx="3" fill="#4d648d"/>
  <rect x="817" y="92" width="41" height="344" rx="3" fill="#ff8a5b"/>
  <rect x="866" y="183" width="41" height="253" rx="3" fill="#4d648d"/>
  <rect x="915" y="231" width="41" height="205" rx="3" fill="#2ec4b6"/>
  <rect x="964" y="213" width="41" height="223" rx="3" fill="#4d648d"/>
  <rect x="1013" y="202" width="41" height="234" rx="3" fill="#4d648d"/>
  <rect x="1062" y="206" width="41" height="230" rx="3" fill="#4d648d"/>
  <rect x="1111" y="243" width="41" height="193" rx="3" fill="#4d648d"/>

  <text x="102" y="478" text-anchor="middle" fill="#8fa6c4" font-size="12" font-family="Segoe UI, Arial, sans-serif">2003</text>
  <text x="200" y="478" text-anchor="middle" fill="#8fa6c4" font-size="12" font-family="Segoe UI, Arial, sans-serif">2005</text>
  <text x="298" y="478" text-anchor="middle" fill="#8fa6c4" font-size="12" font-family="Segoe UI, Arial, sans-serif">2007</text>
  <text x="396" y="478" text-anchor="middle" fill="#8fa6c4" font-size="12" font-family="Segoe UI, Arial, sans-serif">2009</text>
  <text x="494" y="478" text-anchor="middle" fill="#8fa6c4" font-size="12" font-family="Segoe UI, Arial, sans-serif">2011</text>
  <text x="592" y="478" text-anchor="middle" fill="#8fa6c4" font-size="12" font-family="Segoe UI, Arial, sans-serif">2013</text>
  <text x="690" y="478" text-anchor="middle" fill="#8fa6c4" font-size="12" font-family="Segoe UI, Arial, sans-serif">2015</text>
  <text x="788" y="478" text-anchor="middle" fill="#8fa6c4" font-size="12" font-family="Segoe UI, Arial, sans-serif">2017</text>
  <text x="837" y="478" text-anchor="middle" fill="#8fa6c4" font-size="12" font-family="Segoe UI, Arial, sans-serif">2018</text>
  <text x="886" y="478" text-anchor="middle" fill="#8fa6c4" font-size="12" font-family="Segoe UI, Arial, sans-serif">2019</text>
  <text x="935" y="478" text-anchor="middle" fill="#8fa6c4" font-size="12" font-family="Segoe UI, Arial, sans-serif">2020</text>
  <text x="1082" y="478" text-anchor="middle" fill="#8fa6c4" font-size="12" font-family="Segoe UI, Arial, sans-serif">2023</text>
  <text x="1131" y="478" text-anchor="middle" fill="#8fa6c4" font-size="12" font-family="Segoe UI, Arial, sans-serif">2024</text>

  <text x="837" y="82" text-anchor="middle" fill="#e8eef8" font-size="12" font-family="Segoe UI, Arial, sans-serif">183,318</text>
  <text x="935" y="221" text-anchor="middle" fill="#e8eef8" font-size="12" font-family="Segoe UI, Arial, sans-serif">109,258</text>

  <line x1="82" y1="92" x2="82" y2="436" stroke="#486384" stroke-width="1.2"/>
  <line x1="82" y1="436" x2="1158" y2="436" stroke="#486384" stroke-width="1.2"/>

  <rect x="820" y="82" width="18" height="18" rx="3" fill="#ff8a5b"/>
  <text x="846" y="96" fill="#c9d7ea" font-size="13" font-family="Segoe UI, Arial, sans-serif">2018 spike</text>
  <rect x="950" y="82" width="18" height="18" rx="3" fill="#2ec4b6"/>
  <text x="976" y="96" fill="#c9d7ea" font-size="13" font-family="Segoe UI, Arial, sans-serif">2020 drop</text>
</svg>
